<svg width="24" height="24" viewBox="0 0 24 24" fill="none" xmlns="http://www.w3.org/2000/svg">
<path fill-rule="evenodd" clip-rule="evenodd" d="M19.3702 10.9991L18.5597 13.8569C18.4169 14.3591 18.1142 14.8011 17.6976 15.1157C17.2809 15.4304 16.773 15.6006 16.2509 15.6005H10.1561C9.62963 15.6007 9.11771 15.4277 8.6992 15.1083C8.2807 14.7889 7.97883 14.3408 7.8401 13.8329L7.0697 11.0069C7.06529 10.9942 7.06128 10.9814 7.0577 10.9685L5.8205 6.7721L5.7005 6.3677L5.69781 6.35837C5.57892 5.947 5.47371 5.58299 5.3165 5.2769C5.1257 4.9049 4.9505 4.7969 4.7213 4.7969H4.1957C4.03657 4.7969 3.88396 4.73369 3.77144 4.62117C3.65892 4.50865 3.5957 4.35603 3.5957 4.1969L3.5969 4.1957C3.5969 4.03657 3.66012 3.88396 3.77264 3.77144C3.88516 3.65892 4.03777 3.5957 4.1969 3.5957H4.7225C5.5949 3.5957 6.0965 4.1633 6.3869 4.7297C6.5849 5.1173 6.7277 5.5901 6.8465 6.0005H13.2692C13.3846 6.41817 13.5353 6.8195 13.7174 7.2005H7.2005L8.2145 10.6433V10.6445L8.9981 13.5197C9.06758 13.7735 9.21856 13.9975 9.4278 14.1571C9.63705 14.3166 9.89295 14.403 10.1561 14.4029H16.2521C16.513 14.4026 16.7668 14.3173 16.9749 14.1599C17.183 14.0025 17.3341 13.7815 17.4053 13.5305L18.1647 10.8526C18.5549 10.9404 18.9578 10.9904 19.3702 10.9991Z" fill="#474443"/>
<path d="M12.0004 18.5998C12.0004 19.0772 11.8107 19.535 11.4732 19.8726C11.1356 20.2102 10.6778 20.3998 10.2004 20.3998C9.723 20.3998 9.26516 20.2102 8.9276 19.8726C8.59003 19.535 8.40039 19.0772 8.40039 18.5998C8.40039 18.1224 8.59003 17.6646 8.9276 17.327C9.26516 16.9894 9.723 16.7998 10.2004 16.7998C10.6778 16.7998 11.1356 16.9894 11.4732 17.327C11.8107 17.6646 12.0004 18.1224 12.0004 18.5998ZM10.8004 18.5998C10.8004 18.4407 10.7372 18.2881 10.6247 18.1755C10.5121 18.063 10.3595 17.9998 10.2004 17.9998C10.0413 17.9998 9.88865 18.063 9.77613 18.1755C9.6636 18.2881 9.60039 18.4407 9.60039 18.5998C9.60039 18.7589 9.6636 18.9115 9.77613 19.0241C9.88865 19.1366 10.0413 19.1998 10.2004 19.1998C10.3595 19.1998 10.5121 19.1366 10.6247 19.0241C10.7372 18.9115 10.8004 18.7589 10.8004 18.5998Z" fill="#474443"/>
<path d="M18.0004 18.5998C18.0004 19.0772 17.8107 19.535 17.4732 19.8726C17.1356 20.2102 16.6778 20.3998 16.2004 20.3998C15.723 20.3998 15.2652 20.2102 14.9276 19.8726C14.59 19.535 14.4004 19.0772 14.4004 18.5998C14.4004 18.1224 14.59 17.6646 14.9276 17.327C15.2652 16.9894 15.723 16.7998 16.2004 16.7998C16.6778 16.7998 17.1356 16.9894 17.4732 17.327C17.8107 17.6646 18.0004 18.1224 18.0004 18.5998ZM16.8004 18.5998C16.8004 18.4407 16.7372 18.2881 16.6247 18.1755C16.5121 18.063 16.3595 17.9998 16.2004 17.9998C16.0413 17.9998 15.8886 18.063 15.7761 18.1755C15.6636 18.2881 15.6004 18.4407 15.6004 18.5998C15.6004 18.7589 15.6636 18.9115 15.7761 19.0241C15.8886 19.1366 16.0413 19.1998 16.2004 19.1998C16.3595 19.1998 16.5121 19.1366 16.6247 19.0241C16.7372 18.9115 16.8004 18.7589 16.8004 18.5998Z" fill="#474443"/>
</svg>
