<svg width="185" height="24" viewBox="0 0 185 24" fill="none" xmlns="http://www.w3.org/2000/svg">
<path d="M70.8145 20.626C70.7098 20.5095 70.6185 20.6434 70.3082 20.8725C69.9456 21.1404 69.2808 21.5409 67.9446 21.8169C64.0244 22.626 61.3425 20.7573 60.4722 17.5369C59.5496 14.1237 60.9329 9.82091 63.3623 8.81756C63.4496 8.78139 63.5705 8.71442 63.6148 8.68629C63.7343 8.61261 63.7289 8.5443 63.7128 8.46795C63.6994 8.39829 63.6081 8.33935 63.5342 8.33935C63.4536 8.33935 63.3019 8.35006 63.2509 8.36077C58.8083 9.34939 56.4473 13.3842 57.0771 17.2463C57.7312 21.2664 61.4835 23.983 65.5863 23.687C67.5256 23.5476 69.4259 22.3474 70.3526 21.3909C70.7152 21.0172 70.875 20.6943 70.8145 20.626Z" fill="#474443"/>
<path d="M63.5334 15.7546C63.5401 15.9489 63.8933 15.9502 63.8933 15.9502H68.1089C68.1089 15.9502 69.9555 15.9274 70.4954 15.7801C70.9641 15.6528 71.923 15.1853 71.5819 13.0875C71.2851 11.259 69.6762 9.43045 67.3179 8.63608C66.9446 8.51016 66.6692 8.43913 66.3966 8.37617C65.9789 8.27704 65.7735 8.2476 65.7292 8.33467C65.701 8.38959 65.6915 8.4887 65.8111 8.57711C65.9776 8.69901 66.1146 8.7727 66.3201 8.88925C66.9392 9.24022 68.8315 10.8156 68.6851 12.8464C68.5441 14.7647 65.1382 15.3581 63.9161 15.5082C63.716 15.5336 63.5267 15.5872 63.5334 15.7546Z" fill="#474443"/>
<path d="M35.4648 9.0055V9.00684H35.4942V9.0055H35.4648Z" fill="#474443"/>
<path d="M37.375 9.0055V9.00684H37.431V9.0055H37.375Z" fill="#474443"/>
<path d="M32.4483 23.7532C32.5208 23.7451 32.592 23.729 32.6618 23.7156C35.9495 23.0887 37.0776 20.8905 37.326 19.9394C37.4174 19.5924 37.4294 18.7512 37.4294 18.7512L35.4633 18.3479C35.4633 18.3479 35.4378 19.4223 35.3666 19.8362C35.1719 20.9936 34.5608 22.936 32.6484 23.6286C32.5638 23.6581 32.4779 23.6849 32.3892 23.7103C32.2992 23.7344 32.3194 23.7652 32.4483 23.7532Z" fill="#474443"/>
<path d="M30.0593 23.6414C29.7799 23.5651 29.6899 23.5195 29.463 23.3949C27.423 22.2764 27.4753 18.4586 27.4753 18.4586L27.4821 16.7064L26.3566 13.3306L25.4031 15.6374L24.3516 16.1826C24.3516 16.1826 24.3663 17.8919 24.3663 18.3755C24.3663 21.4016 25.4985 23.3172 29.1057 23.7606C29.4254 23.7995 29.5771 23.8115 29.9357 23.8276C30.164 23.8383 30.1895 23.6749 30.0593 23.6414Z" fill="#474443"/>
<path d="M24.3516 17.0596H27.4834V8.22501H24.3516V17.0596Z" fill="#474443"/>
<path d="M24.3544 10.3154C24.3544 9.32949 23.7098 8.52707 22.7227 8.52707H24.3853L24.3544 10.3154Z" fill="#474443"/>
<path d="M27.4873 10.3115C27.4873 9.32559 28.1615 8.52182 29.1486 8.52182H27.4551L27.4873 10.3115Z" fill="#474443"/>
<path d="M29.1381 8.52441H22.7012C22.6179 8.52441 22.5508 8.45728 22.5508 8.37402C22.5508 8.29075 22.6179 8.22359 22.7012 8.22359H29.1381C29.2214 8.22359 29.2885 8.29075 29.2885 8.37402C29.2885 8.45728 29.2214 8.52441 29.1381 8.52441Z" fill="#474443"/>
<path d="M37.3759 8.44284H35.4648V18.751H37.4323V9.90569V8.44284H37.3759Z" fill="#474443"/>
<path d="M35.4677 10.2988C35.4677 9.31289 34.823 8.51047 33.8359 8.51047H35.4986L35.4677 10.2988Z" fill="#474443"/>
<path d="M37.4293 10.3008C37.4293 9.31485 38.1035 8.51242 39.0919 8.51242H37.3984L37.4293 10.3008Z" fill="#474443"/>
<path d="M39.0677 8.51367H33.857C33.7831 8.51367 33.7227 8.45324 33.7227 8.37803V8.34849C33.7227 8.27462 33.7831 8.21284 33.857 8.21284H39.0677C39.1429 8.21284 39.2034 8.27462 39.2034 8.34849V8.37803C39.2034 8.45324 39.1429 8.51367 39.0677 8.51367Z" fill="#474443"/>
<path d="M46.2051 17.0527H49.3369V8.21818H46.2051V17.0527Z" fill="#474443"/>
<path d="M46.202 10.3047C46.202 9.31875 45.5574 8.51633 44.5703 8.51633H46.2329L46.202 10.3047Z" fill="#474443"/>
<path d="M49.3356 10.3047C49.3356 9.31875 50.0098 8.51499 50.9982 8.51499H49.3047L49.3356 10.3047Z" fill="#474443"/>
<path d="M50.9897 8.51758H44.5514C44.4682 8.51758 44.4023 8.45045 44.4023 8.36718C44.4023 8.28392 44.4682 8.21675 44.5514 8.21675H50.9897C51.0716 8.21675 51.1388 8.28392 51.1388 8.36718C51.1388 8.45045 51.0716 8.51758 50.9897 8.51758Z" fill="#474443"/>
<path d="M49.3369 14.9252H46.2051V23.7598H49.3369V14.9252Z" fill="#474443"/>
<path d="M49.3356 21.6687C49.3356 22.6546 49.9802 23.457 50.9673 23.457H49.3047L49.3356 21.6687Z" fill="#474443"/>
<path d="M46.2056 21.6732C46.2056 22.6591 45.5301 23.4629 44.543 23.4629H46.2365L46.2056 21.6732Z" fill="#474443"/>
<path d="M44.5514 23.4589H50.9897C51.0716 23.4589 51.1388 23.5274 51.1388 23.6094C51.1388 23.6926 51.0716 23.7598 50.9897 23.7598H44.5514C44.4682 23.7598 44.4023 23.6926 44.4023 23.6094C44.4023 23.5274 44.4682 23.4589 44.5514 23.4589Z" fill="#474443"/>
<path d="M79.013 8.35667V19.6574C79.013 19.6574 78.8599 23.4725 81.9219 23.7244C84.2721 23.9173 85.7816 22.5603 85.7816 22.5603C85.7816 22.5603 85.9213 22.4156 85.8085 22.3178C85.7346 22.2549 85.5855 22.3312 85.5855 22.3312C85.5855 22.3312 84.5206 22.772 83.6087 22.5657C82.0589 22.2147 82.2482 19.782 82.2482 17.8798C82.2482 16.1544 82.2469 6.19858 82.2469 4.35799C82.2469 4.19456 82.1153 4.06463 81.9514 4.06463H80.634C80.4701 4.06463 80.3399 4.19456 80.3385 4.35665L80.3143 7.88379L79.013 8.35667Z" fill="#474443"/>
<path d="M80.3389 5.14358C80.3389 6.85155 78.8979 8.21792 77.1855 8.21792L80.3563 8.23535L80.3389 5.14358Z" fill="#474443"/>
<path d="M85.6438 8.20755H76.6162C76.5155 8.20755 76.4336 8.28949 76.4336 8.39021C76.4336 8.49094 76.5155 8.57422 76.6162 8.57422H78.6858H81.7088H85.6438C85.7459 8.57422 85.8278 8.49094 85.8278 8.39021C85.8278 8.28949 85.7459 8.20755 85.6438 8.20755Z" fill="#474443"/>
<path d="M3.1246 15.5932C3.35492 12.5966 4.9618 9.58519 7.03389 8.72652C7.10104 8.69973 7.16403 8.65554 7.21131 8.60865C7.28571 8.53498 7.32667 8.30053 7.03081 8.29384C6.9736 8.2925 6.9039 8.2965 6.77107 8.3166C3.69228 8.78545 0.93231 11.0025 0.187356 14.397C-0.775296 18.7801 2.0807 22.6475 6.25389 23.5597C6.58332 23.6307 6.9967 23.683 7.09003 23.675C7.24542 23.6616 7.28893 23.4218 7.10628 23.328C6.99884 23.2731 6.90644 23.2262 6.77684 23.174C4.36471 22.1934 2.87963 18.7814 3.1246 15.5932Z" fill="#474443"/>
<path d="M13.2228 15.5932C12.993 12.5966 11.3856 9.58519 9.31354 8.72652C9.24692 8.69973 9.18286 8.65554 9.13572 8.60865C9.06172 8.53498 9.02023 8.30053 9.31609 8.29384C9.3733 8.2925 9.44408 8.2965 9.57582 8.3166C12.6548 8.78545 15.4151 11.0025 16.1599 14.397C17.1229 18.7801 14.2669 22.6475 10.0935 23.5597C9.76411 23.6307 9.3502 23.683 9.2574 23.675C9.10215 23.6616 9.0585 23.4218 9.24061 23.328C9.34872 23.2731 9.44152 23.2262 9.57058 23.174C11.9833 22.1934 13.4683 18.7814 13.2228 15.5932Z" fill="#474443"/>
<path d="M6.81553 21.6536C7.22527 21.1995 8.14603 20.3769 9.63903 20.0755C11.7448 19.6536 13.7467 20.7614 14.5373 21.1392C15.1122 21.4138 15.8707 21.9644 16.9805 22.1157C17.6305 22.2041 18.1985 22.1278 18.541 21.9818C18.721 21.9054 18.8042 22.0367 18.7129 22.1707C18.6592 22.2497 16.7629 23.8224 14.0472 22.886C11.3313 21.9483 10.9159 21.3589 9.30905 21.3294C8.24245 21.3093 7.38375 21.596 6.92579 21.7902C6.69386 21.8893 6.64725 21.8398 6.81553 21.6536Z" fill="#474443"/>
<path d="M154.378 22.3143C154.257 22.2741 154.091 22.3973 153.869 22.4442C153.152 22.5943 151.45 22.7135 149.907 21.0243C149.187 20.2393 148.677 19.3846 148.455 18.3639C148.341 17.8374 148.275 17.3739 148.238 16.9894C149.124 16.672 150.043 16.1335 150.769 15.2172C152.756 12.7148 151.824 8.20578 145.552 8.24865C145.362 8.24999 144.538 8.25537 144.336 8.26608C144.336 8.26608 144.148 8.28481 144.148 8.44289C144.148 8.60096 144.336 8.60903 144.336 8.60903C144.336 8.60903 145.102 8.71082 145.352 8.76306C146.155 8.92783 146.751 9.1971 147.135 9.44493C147.742 9.83742 147.902 10.0236 148.249 10.5072C148.685 11.1154 149.009 11.9379 149.009 12.9051C149.009 14.1455 148.313 15.1489 147.157 15.7999C146.442 16.2018 145.743 16.3799 145.299 16.4576C145.012 16.5085 144.835 16.672 144.854 16.8917C144.93 17.8361 145.303 20.4951 147.142 22.183C147.954 22.9292 149.588 23.6445 151.137 23.6445C153.099 23.6445 154.33 22.6103 154.33 22.6103C154.33 22.6103 154.585 22.3826 154.378 22.3143Z" fill="#474443"/>
<path d="M138.844 17.1113H141.976V8.27539H138.844V17.1113Z" fill="#474443"/>
<path d="M138.841 10.3633C138.841 9.37869 138.197 8.57495 137.209 8.57495H138.873L138.841 10.3633Z" fill="#474443"/>
<path d="M141.757 8.5752H137.193C137.11 8.5752 137.043 8.50803 137.043 8.42477C137.043 8.34284 137.11 8.27434 137.193 8.27434H141.757C141.84 8.27434 141.907 8.34284 141.907 8.42477C141.907 8.50803 141.84 8.5752 141.757 8.5752Z" fill="#474443"/>
<path d="M141.976 14.9828H138.844V23.8174H141.976V14.9828Z" fill="#474443"/>
<path d="M141.975 21.726C141.975 22.7119 142.621 23.5156 143.608 23.5156H141.945L141.975 21.726Z" fill="#474443"/>
<path d="M138.842 21.7312C138.842 22.7158 138.168 23.5195 137.18 23.5195H138.875L138.842 21.7312Z" fill="#474443"/>
<path d="M137.193 23.5179H143.63C143.714 23.5179 143.781 23.5851 143.781 23.6683C143.781 23.7503 143.714 23.8174 143.63 23.8174H137.193C137.11 23.8174 137.043 23.7503 137.043 23.6683C137.043 23.5851 137.11 23.5179 137.193 23.5179Z" fill="#474443"/>
<path d="M174.875 9.29921C175.276 9.20008 175.892 9.12774 176.223 9.1331C178.552 9.16793 178.357 12.2932 178.357 12.8505C178.357 12.9268 178.368 13.6113 178.368 13.6113L181.497 13.1264C181.497 13.1264 181.497 12.044 181.497 11.7011C181.497 11.3568 181.375 8.50483 178.396 8.25969C176.472 8.10028 175.337 8.74596 174.731 9.05942C174.543 9.15587 174.378 9.2724 174.413 9.34876C174.457 9.44655 174.641 9.35547 174.875 9.29921Z" fill="#474443"/>
<path d="M178.356 17.5484C178.356 17.5484 178.356 19.0796 178.356 19.7226C178.356 19.8458 178.222 23.531 181.177 23.7828C183.444 23.9757 184.885 22.6295 184.885 22.6295C184.885 22.6295 185.101 22.4071 184.94 22.3361C184.846 22.2959 184.642 22.4192 184.523 22.4607C184.188 22.5759 183.454 22.7782 182.803 22.6241C181.308 22.2731 181.49 19.8418 181.49 17.9382C181.49 16.036 181.49 15.594 181.49 15.594L178.356 17.5484Z" fill="#474443"/>
<path d="M178.359 18.4414H181.491V12.7642H178.359V18.4414Z" fill="#474443"/>
<path d="M165.826 9.29921C166.229 9.20008 166.843 9.12774 167.176 9.1331C169.503 9.16793 169.308 12.2932 169.308 12.8505C169.308 12.9268 169.32 13.6113 169.32 13.6113L172.448 13.1264C172.448 13.1264 172.448 12.044 172.448 11.7011C172.448 11.3568 172.326 8.50483 169.349 8.25969C167.424 8.10028 166.288 8.74596 165.682 9.05942C165.496 9.15587 165.329 9.2724 165.364 9.34876C165.41 9.44655 165.592 9.35547 165.826 9.29921Z" fill="#474443"/>
<path d="M172.446 13.0699H169.312V23.8174H172.446V13.0699Z" fill="#474443"/>
<path d="M172.446 21.726C172.446 22.7119 173.09 23.5156 174.078 23.5156H172.414L172.446 21.726Z" fill="#474443"/>
<path d="M169.313 21.7312C169.313 22.7158 168.639 23.5195 167.65 23.5195H169.344L169.313 21.7312Z" fill="#474443"/>
<path d="M167.661 23.5179H174.099C174.182 23.5179 174.249 23.5851 174.249 23.6683C174.249 23.7503 174.182 23.8174 174.099 23.8174H167.661C167.579 23.8174 167.512 23.7503 167.512 23.6683C167.512 23.5851 167.579 23.5179 167.661 23.5179Z" fill="#474443"/>
<path d="M159.818 17.1113H162.95V8.79919C162.95 8.50984 162.717 8.27539 162.426 8.27539H159.818V17.1113Z" fill="#474443"/>
<path d="M159.815 10.3633C159.815 9.37869 159.169 8.57495 158.182 8.57495H159.844L159.815 10.3633Z" fill="#474443"/>
<path d="M162.48 8.5752H158.165C158.081 8.5752 158.016 8.50803 158.016 8.42477C158.016 8.34284 158.081 8.27434 158.165 8.27434L162.48 8.27568C162.562 8.27568 162.629 8.34284 162.629 8.42477C162.629 8.50803 162.562 8.5752 162.48 8.5752Z" fill="#474443"/>
<path d="M162.95 14.9828H159.818V23.8174H162.95V14.9828Z" fill="#474443"/>
<path d="M162.949 21.726C162.949 22.7119 163.593 23.5156 164.581 23.5156H162.918L162.949 21.726Z" fill="#474443"/>
<path d="M159.817 21.7312C159.817 22.7158 159.143 23.5195 158.154 23.5195H159.848L159.817 21.7312Z" fill="#474443"/>
<path d="M158.165 23.5179H164.603C164.685 23.5179 164.752 23.5851 164.752 23.6683C164.752 23.7503 164.685 23.8174 164.603 23.8174H158.165C158.081 23.8174 158.016 23.7503 158.016 23.6683C158.016 23.5851 158.081 23.5179 158.165 23.5179Z" fill="#474443"/>
<path d="M104.777 13.1783L104.727 13.185C104.727 13.185 104.749 13.8146 104.777 13.1783Z" fill="#474443"/>
<path d="M106.966 2.26004C104.457 5.20444 104.698 7.99747 104.698 10.5199C104.698 11.1401 104.698 11.4496 104.698 11.6881L106.469 11.96L107.823 11.2446C107.823 11.2446 107.828 9.86619 107.836 8.64315C107.847 7.41877 107.737 5.28214 107.71 4.70344C107.691 4.33103 107.682 3.22856 107.862 2.23593C107.925 1.88094 108.083 1.55944 108.058 1.50184C108.016 1.40807 107.902 1.43218 107.589 1.66661C107.478 1.74966 107.201 1.98408 106.966 2.26004Z" fill="#474443"/>
<path d="M114.993 0.400499C113.887 -0.158108 111.647 -0.200989 109.587 0.720645C109.547 0.7394 109.508 0.756804 109.465 0.776898C109.3 0.859952 109.413 1.03546 109.551 0.996608C109.611 0.980533 109.652 0.972494 109.701 0.961777C111.408 0.596071 112.797 1.63157 113.267 2.39915C113.572 2.8948 114.237 3.7548 115.429 3.35694C116.654 2.95105 116.631 1.22836 114.993 0.400499Z" fill="#474443"/>
<path d="M107.823 11.004H104.691V23.7676H107.823V11.004Z" fill="#474443"/>
<path d="M107.825 21.6765C107.825 22.6624 108.468 23.4648 109.456 23.4648H107.793L107.825 21.6765Z" fill="#474443"/>
<path d="M104.69 21.681C104.69 22.6669 104.016 23.4707 103.027 23.4707H104.721L104.69 21.681Z" fill="#474443"/>
<path d="M103.036 23.4681H109.474C109.557 23.4681 109.623 23.5339 109.623 23.6171C109.623 23.7004 109.557 23.7676 109.474 23.7676H103.036C102.954 23.7676 102.887 23.7004 102.887 23.6171C102.887 23.5339 102.954 23.4681 103.036 23.4681Z" fill="#474443"/>
<path d="M112.545 9.00056H102.454C102.351 9.00056 102.27 9.08246 102.27 9.18453C102.27 9.28525 102.351 9.36719 102.454 9.36719H104.523H107.546H112.545C112.647 9.36719 112.729 9.28525 112.729 9.18453C112.729 9.08246 112.647 9.00056 112.545 9.00056Z" fill="#474443"/>
<path d="M119.171 15.9175C119.402 12.9208 121.008 9.91075 123.08 9.05074C123.148 9.02261 123.212 8.97976 123.259 8.93287C123.332 8.85919 123.375 8.62475 123.078 8.61805C123.021 8.61672 122.95 8.62076 122.819 8.64085C119.74 9.1097 116.979 11.3267 116.234 14.7212C115.272 19.1043 118.127 22.9717 122.3 23.8826C122.631 23.955 123.044 24.0072 123.137 23.9992C123.291 23.9858 123.336 23.746 123.154 23.6522C123.046 23.5973 122.953 23.5518 122.824 23.4995C120.412 22.5189 118.925 19.1057 119.171 15.9175Z" fill="#474443"/>
<path d="M129.269 15.9175C129.04 12.9208 127.432 9.91075 125.36 9.05074C125.293 9.02261 125.231 8.97976 125.182 8.93287C125.109 8.85919 125.067 8.62475 125.364 8.61805C125.42 8.61672 125.491 8.62076 125.624 8.64085C128.702 9.1097 131.462 11.3267 132.208 14.7212C133.171 19.1043 130.314 22.9717 126.14 23.8826C125.811 23.955 125.399 24.0072 125.305 23.9992C125.149 23.9858 125.106 23.746 125.289 23.6522C125.396 23.5973 125.489 23.5518 125.618 23.4995C128.031 22.5189 129.515 19.1057 129.269 15.9175Z" fill="#474443"/>
</svg>
